/* XPM */
static char * bitcoin16_xpm[] = {
"16 16 43 1",
" 	c None",
".	c #0DAAA4",
"+	c #20B3AD",
"@	c #1BB1AB",
"#	c #08A59F",
"$	c #23B5AF",
"%	c #15B2AC",
"&	c #1FB7B1",
"*	c #0AABA5",
"=	c #06A9A3",
"-	c #11B0AA",
";	c #1CB6B0",
">	c #08ABA5",
",	c #1BB4AE",
"'	c #02A6A0",
")	c #04A7A1",
"!	c #0EADA7",
"~	c #00A59F",
"{	c #1CB5AF",
"]	c #0DADA7",
"^	c #03A6A0",
"/	c #1DB6AF",
"(	c #06A8A2",
"_	c #05A7A1",
":	c #15B1AB",
"<	c #17B3AC",
"[	c #01A6A0",
"}	c #13B0AA",
"|	c #19B3AD",
"1	c #05A8A2",
"2	c #01A59F",
"3	c #19B4AD",
"4	c #10AEA8",
"5	c #1CB6AF",
"6	c #0DACA6",
"7	c #04A8A2",
"8	c #16B2AB",
"9	c #17B2AC",
"0	c #1EB6B0",
"a	c #12AFA9",
"b	c #08AAA3",
"c	c #04A09A",
"d	c #04A19B",
"                ",
"                ",
"                ",
"   .+@#   @$.   ",
"   %&*=  -;*>   ",
"    ,')  ,!~    ",
"    {]^  /(_    ",
"    :<['}|[(    ",
"     /1234'     ",
"     56'&(7     ",
"     8819'1     ",
"      01)1      ",
"      ab)1      ",
"       cd       ",
"                ",
"                "};
