/* XPM */
static char * bitcoin64_xpm[] = {
"64 64 116 2",
"  	c None",
". 	c #04A9A3",
"+ 	c #05A9A3",
"@ 	c #04A8A2",
"# 	c #01A7A1",
"$ 	c #00A6A1",
"% 	c #00A6A0",
"& 	c #00A59F",
"* 	c #05A8A2",
"= 	c #00A49E",
"- 	c #04A7A1",
"; 	c #05A7A1",
"> 	c #07A9A3",
", 	c #10AEA8",
"' 	c #12AFA9",
") 	c #14B0AA",
"! 	c #16B2AB",
"~ 	c #18B3AD",
"{ 	c #1BB4AE",
"] 	c #1DB6B0",
"^ 	c #20B8B1",
"/ 	c #22B9B2",
"( 	c #08A9A3",
"_ 	c #06A8A2",
": 	c #20B7B1",
"< 	c #26BBB4",
"[ 	c #27BCB5",
"} 	c #28BCB6",
"| 	c #2ABDB7",
"1 	c #2BBEB7",
"2 	c #2CBFB8",
"3 	c #2EC0B9",
"4 	c #0CABA5",
"5 	c #03A7A1",
"6 	c #0CACA5",
"7 	c #4BD1CA",
"8 	c #50D4CD",
"9 	c #4FD3CC",
"0 	c #4ED3CC",
"a 	c #4DD2CB",
"b 	c #4AD0C9",
"c 	c #0DADA6",
"d 	c #03A6A0",
"e 	c #01A6A0",
"f 	c #15B1AB",
"g 	c #54D6CF",
"h 	c #4AD1CA",
"i 	c #48CFC8",
"j 	c #47CEC7",
"k 	c #46CEC7",
"l 	c #44CDC6",
"m 	c #44CCC6",
"n 	c #0FAEA8",
"o 	c #02A6A0",
"p 	c #3AC7C0",
"q 	c #42CBC5",
"r 	c #0DACA6",
"s 	c #0FADA7",
"t 	c #0CACA6",
"u 	c #0BABA5",
"v 	c #09AAA4",
"w 	c #47CFC8",
"x 	c #30C1BA",
"y 	c #0AAAA4",
"z 	c #51D5CE",
"A 	c #16B2AC",
"B 	c #01A59F",
"C 	c #3BC8C1",
"D 	c #3DC9C2",
"E 	c #49D0C9",
"F 	c #33C3BC",
"G 	c #22B8B2",
"H 	c #51D4CD",
"I 	c #19B3AD",
"J 	c #05A8A1",
"K 	c #3BC7C1",
"L 	c #04A7A2",
"M 	c #35C4BE",
"N 	c #0EADA7",
"O 	c #1BB5AE",
"P 	c #25BBB4",
"Q 	c #3FCAC3",
"R 	c #38C6BF",
"S 	c #1EB6B0",
"T 	c #04A8A1",
"U 	c #22B9B3",
"V 	c #3DC8C2",
"W 	c #0AABA5",
"X 	c #21B8B1",
"Y 	c #00A49F",
"Z 	c #05A7A2",
"` 	c #03A6A1",
" .	c #3EC9C2",
"..	c #08AAA4",
"+.	c #4ED2CB",
"@.	c #23BAB3",
"#.	c #1DB6AF",
"$.	c #37C5BF",
"%.	c #40CAC4",
"&.	c #4CD2CB",
"*.	c #26BBB5",
"=.	c #1AB4AE",
"-.	c #34C4BD",
";.	c #43CCC5",
">.	c #29BDB6",
",.	c #17B2AC",
"'.	c #11AFA8",
").	c #45CDC6",
"!.	c #21B8B2",
"~.	c #3CC8C2",
"{.	c #11AFA9",
"].	c #13B0AA",
"^.	c #04A49E",
"/.	c #04A59F",
"(.	c #04A5A0",
"_.	c #04A6A0",
"                                                                                                                                ",
"                                                                                                                                ",
"                                                                                                                                ",
"                                                                                                                                ",
"                                                                                                                                ",
"                                                                                                                                ",
"                                                                                                                                ",
"                                                                                                                                ",
"                                                                                                                                ",
"                                                                                                                                ",
"                                                                                                                                ",
"                                                                                                                                ",
"                                                                                                                                ",
"                        . + @ # $ % % % % & & & @ *                           @ @ & = = = = = = = - * @                         ",
"                        ; - > , ' ) ! ~ { ] ^ / ( - ;                       - - _ : < [ } | 1 2 3 4 5 ;                         ",
"                        * 5 6 7 8 8 8 9 0 a a b c d *                       * e f g h i i j k l m n o *                         ",
"                          * & p q r s t u v > _ * @ -                       _ = 3 w - - 5 d o o e - *                           ",
"                          _ & : 0 ( & 5 5 5 5 - - * -                       @ d k x = * - * * * * * -                           ",
"                          * 5 y 9 / & _ * * * * * - * -                   * e ' z A B * * * * * * * -                           ",
"                            * & C D & * * * * * * - * -                   _ = 1 E * - * * * * * * -                             ",
"                            _ & : 9 u d * * * * * - * -                   * o l F = _ - * * * - * -                             ",
"                            * 5 y 9 G = _ * * * * * * -                 * o , H I & * * * * * @ J -                             ",
"                              * & K D & * * * * * * ; * -               _ = } 7 _ - * * * * L * -                               ",
"                              _ & : 9 u d * * * * * - * -               * B q M = _ * * * * - * -                               ",
"                              * 5 y 9 / = _ * * * * - * -             * o N H O & * * * * * * * -                               ",
"                                * & K D & * * * * * * * - -           _ = P a ( 5 * * * * @ * -                                 ",
"                                _ & : 9 u d * * * * * - * -           * & Q R = _ * * * * - * -                                 ",
"                                * 5 y 9 / = _ * * * * - * -         * d t 8 S & _ * * * * * @ -                                 ",
"                                  * & K D & * * * * * T * -         _ = U 0 v 5 * * * * L * -                                   ",
"                                  _ & : 9 u d * * * * * * - -       * & V C & * * * * * - * -                                   ",
"                                  * 5 y 9 / = _ * * * * - * -     * 5 W 9 X Y _ * * * * * Z -                                   ",
"                                    * & C D & * * * * * - * -     _ & : 9 u ` * * * * - * -                                     ",
"                                    _ & : 9 u d * * * * * * -     * = p  .& * * * * * - * -                                     ",
"                                    * 5 y 9 / = _ * * * * * @ - * 5 ..+.@.= _ * * * * * ; -                                     ",
"                                      * & K D & * * * * * - * - * & #.8 r o * * * * @ * -                                       ",
"                                      _ & : 9 u d * * * * * * * _ = $.%.B * * * * * - * -                                       ",
"                                      * 5 y 9 / = _ * * * * * * - > &.*.= _ @ * * * * - -                                       ",
"                                        * & K D & * * * * * * * & =.H s o * * * * - * -                                         ",
"                                        _ & : 9 u d * * * * * _ = -.;.e * * * * * - * -                                         ",
"                                        * 5 y 9 / = _ * * * * - * 7 >.= _ - * * * * - -                                         ",
"                                          * & C D & * * * * * & ,.z '.o * * * * @ * -                                           ",
"                                          _ & : 9 u d * * * _ = F ).o * * * * * - * -                                           ",
"                                          * 5 y 9 / = _ * * - 5 ).2 = _ - * * * * - -                                           ",
"                                            * & C D & * * * * - t v 5 * * * * - * -                                             ",
"                                            _ & : 9 u d * @ - * d 5 * - * * * - * -                                             ",
"                                              5 y 9 / = _ * * - * * - * * * * * - -                                             ",
"                                              * & K D & * * * * * * * * * * - * -                                               ",
"                                              _ & : 9 u d * * * * * * * * * - * -                                               ",
"                                                5 y 0 !.= _ - * * * * * * * * T -                                               ",
"                                                * = ~. .& * * * * * * * * - * -                                                 ",
"                                                * d {.].5 * * * * * * * * - * -                                                 ",
"                                                  * o e * - - - - - - - - ; - -                                                 ",
"                                                  @ * * @ * * * * * * * * * @                                                   ",
"                                                  ^././././././././.(._._._._.                                                  ",
"                                                                                                                                ",
"                                                                                                                                ",
"                                                                                                                                ",
"                                                                                                                                ",
"                                                                                                                                ",
"                                                                                                                                ",
"                                                                                                                                ",
"                                                                                                                                ",
"                                                                                                                                ",
"                                                                                                                                "};
