/* XPM */
static char * bitcoin32_xpm[] = {
"32 32 82 1",
" 	c None",
".	c #009792",
"+	c #009993",
"@	c #049C97",
"#	c #019893",
"$	c #01A7A1",
"%	c #19B4AE",
"&	c #2EC1BA",
"*	c #2CBFB9",
"=	c #2DC0B9",
"-	c #08ABA5",
";	c #00A6A0",
">	c #1FB8B1",
",	c #33C4BD",
"'	c #2DC0BA",
")	c #32C3BD",
"!	c #1CB6B0",
"~	c #00A29C",
"{	c #1FB7B0",
"]	c #34C3BD",
"^	c #0BABA5",
"/	c #10AEA8",
"(	c #0DACA6",
"_	c #05A8A2",
":	c #04A7A1",
"<	c #06A8A2",
"[	c #38C5BE",
"}	c #0FADA7",
"|	c #0AAAA4",
"1	c #0AABA5",
"2	c #07A9A3",
"3	c #04A8A2",
"4	c #09AAA4",
"5	c #32C2BB",
"6	c #01A59F",
"7	c #02A6A0",
"8	c #03A6A0",
"9	c #16B2AC",
"0	c #2DBFB9",
"a	c #00A39D",
"b	c #03A7A1",
"c	c #00A49E",
"d	c #2FC0BA",
"e	c #14B1AB",
"f	c #01A6A0",
"g	c #29BDB6",
"h	c #1BB4AE",
"i	c #00A59F",
"j	c #05A7A1",
"k	c #1CB5AF",
"l	c #08AAA4",
"m	c #34C4BD",
"n	c #00A49F",
"o	c #2EC0B9",
"p	c #14B1AA",
"q	c #27BCB5",
"r	c #1DB6AF",
"s	c #12B0A9",
"t	c #30C1BB",
"u	c #00A29D",
"v	c #25BBB4",
"w	c #1FB7B1",
"x	c #33C3BC",
"y	c #0CACA6",
"z	c #11AFA9",
"A	c #31C1BB",
"B	c #06A9A2",
"C	c #24BAB4",
"D	c #21B8B2",
"E	c #00A19C",
"F	c #36C4BE",
"G	c #0DADA6",
"H	c #05A8A1",
"I	c #08A9A3",
"J	c #1EB6B0",
"K	c #01A5A0",
"L	c #0BACA6",
"M	c #05A9A3",
"N	c #03A39D",
"O	c #04A49E",
"P	c #04A49F",
"Q	c #04A59F",
"                                ",
"                                ",
"                                ",
"                                ",
"                                ",
"                                ",
"          .+@       #           ",
"      $%&*&=-      ;>,')!$      ",
"      ~{]^/(_:     <[}|123      ",
"       45678::     90a:b:       ",
"       cdef__:    aghi<_j       ",
"       ~kgc<_:    _]lb__:       ",
"        1m:___:   edn<_:        ",
"        cop6__:  aqri__:        ",
"        ~kgc<_:  :]1b__:        ",
"         1]:__:  sti__:         ",
"         cop6__<uvwc__:         ",
"         ~kgc<__bxy8_j:         ",
"          1]:__7zAi_j3          ",
"          cop6BcCDc<j3          ",
"          Ekgc<bFG7_H:          ",
"           1]::IJ:__:           ",
"           copK_K_:_:           ",
"            kgc<__3_:           ",
"            1x::j:j:            ",
"            3LM3___3            ",
"             NOPQQQ             ",
"                                ",
"                                ",
"                                ",
"                                ",
"                                "};
